<svg width="24" height="25" viewBox="0 0 24 25" fill="none" xmlns="http://www.w3.org/2000/svg">
<path d="M0.528125 23.6777C0.371875 23.2285 0.459766 22.5352 0.791797 21.5977C1.12383 20.6406 1.57305 19.5664 2.13945 18.375C2.72539 17.1641 3.36992 15.9141 4.07305 14.625C4.7957 13.3359 5.45 12.1348 6.03594 11.0215C6.64141 9.88867 7.12969 8.93164 7.50078 8.15039C7.89141 7.34961 8.04766 6.8418 7.96953 6.62695C7.73516 6.54883 7.48125 6.57812 7.20781 6.71484C6.95391 6.85156 6.69023 6.98828 6.4168 7.125C6.16289 7.26172 5.90898 7.33984 5.65508 7.35938C5.40117 7.37891 5.17656 7.24219 4.98125 6.94922C4.88359 6.8125 4.84453 6.68555 4.86406 6.56836C4.90312 6.43164 4.96172 6.30469 5.03984 6.1875C5.1375 6.07031 5.23516 5.97266 5.33281 5.89453C5.45 5.79688 5.54766 5.71875 5.62578 5.66016C7.85234 4.19531 9.96172 3.05273 11.9539 2.23242C13.9656 1.41211 15.7625 0.855469 17.3445 0.5625C18.9461 0.269531 20.284 0.210938 21.3582 0.386719C22.452 0.5625 23.2039 0.923828 23.6141 1.4707C24.0242 1.99805 24.0438 2.69141 23.6727 3.55078C23.3211 4.39062 22.491 5.33789 21.1824 6.39258C19.8934 7.44727 18.0672 8.58008 15.7039 9.79102C13.3602 10.9824 10.4109 12.2031 6.85625 13.4531C6.66094 13.7656 6.70977 14.1172 7.00273 14.5078C7.31523 14.8984 7.76445 15.3281 8.35039 15.7969C8.95586 16.2461 9.65898 16.7148 10.4598 17.2031C11.2801 17.6914 12.1004 18.1895 12.9207 18.6973C13.7605 19.1855 14.5516 19.6738 15.2937 20.1621C16.0555 20.6309 16.6805 21.0801 17.1688 21.5098C17.657 21.9395 17.9695 22.3398 18.1063 22.7109C18.2625 23.082 18.1355 23.4043 17.7254 23.6777C17.7059 23.6973 17.5789 23.6289 17.3445 23.4727C17.1297 23.2969 16.8563 23.082 16.5242 22.8281C16.1922 22.5547 15.8309 22.2617 15.4402 21.9492C15.0691 21.6367 14.7078 21.3438 14.3562 21.0703C14.0242 20.7969 13.7312 20.5625 13.4773 20.3672C13.243 20.1719 13.1062 20.0547 13.0672 20.0156C11.8953 19.2734 10.7234 18.541 9.55156 17.8184C8.37969 17.0957 7.23711 16.2852 6.12383 15.3867C5.75273 15.2695 5.38164 15.4648 5.01055 15.9727C4.63945 16.4805 4.27813 17.1348 3.92656 17.9355C3.575 18.7168 3.22344 19.5566 2.87188 20.4551C2.53984 21.334 2.22734 22.1055 1.93438 22.7695C1.64141 23.4141 1.37773 23.8535 1.14336 24.0879C0.908984 24.3418 0.703906 24.2051 0.528125 23.6777ZM7.50078 11.4609C7.93047 11.5977 8.50664 11.5879 9.2293 11.4316C9.97148 11.2754 10.782 11.0117 11.6609 10.6406C12.5594 10.2695 13.4871 9.82031 14.4441 9.29297C15.4207 8.76562 16.3484 8.21875 17.2273 7.65234C18.1063 7.06641 18.907 6.48047 19.6297 5.89453C20.3719 5.30859 20.948 4.77148 21.3582 4.2832C21.7684 3.77539 21.9832 3.3457 22.0027 2.99414C22.0418 2.64258 21.8074 2.41797 21.2996 2.32031C19.1902 2.28125 17.3934 2.38867 15.909 2.64258C14.4246 2.87695 13.1551 3.32617 12.1004 3.99023C11.0457 4.6543 10.157 5.5625 9.43437 6.71484C8.71172 7.86719 8.06719 9.33203 7.50078 11.1094V11.4609Z" fill="#E4E4E4"/>
</svg>
